<?xml version="1.0" standalone="no"?>
<!DOCTYPE svg PUBLIC "-//W3C//DTD SVG 20010904//EN"
 "http://www.w3.org/TR/2001/REC-SVG-20010904/DTD/svg10.dtd">
<svg version="1.0" xmlns="http://www.w3.org/2000/svg"
 width="954.000000pt" height="826.000000pt" viewBox="0 0 954.000000 826.000000"
 preserveAspectRatio="xMidYMid meet">

<g transform="translate(0.000000,826.000000) scale(0.100000,-0.100000)"
fill="#000000" stroke="none">
<path d="M2473 8166 c-315 -51 -575 -95 -578 -98 -4 -3 13 -129 38 -280 l44
-273 -136 -71 c-143 -74 -227 -126 -351 -218 -41 -31 -81 -54 -88 -51 -7 3
-109 75 -226 160 -118 85 -217 155 -222 154 -11 0 -688 -933 -691 -951 -1 -7
54 -53 124 -103 69 -49 170 -122 224 -162 l98 -72 -38 -114 c-47 -140 -76
-262 -99 -415 l-18 -116 -274 -44 c-151 -24 -277 -45 -279 -47 -3 -4 178
-1168 183 -1172 3 -3 490 73 533 82 20 5 29 -7 79 -106 69 -138 143 -259 227
-370 l65 -86 -166 -227 c-138 -191 -163 -230 -151 -241 26 -24 940 -685 947
-685 4 1 77 98 162 216 85 119 160 220 166 225 7 6 61 -7 145 -35 139 -46 272
-76 420 -97 l87 -12 26 -166 c14 -91 34 -217 43 -279 10 -61 22 -112 28 -112
5 0 134 20 285 45 151 24 276 42 278 41 1 -2 23 -128 47 -281 24 -152 46 -279
49 -283 3 -3 124 13 269 36 144 23 267 42 274 42 7 0 40 -55 74 -122 60 -117
183 -312 248 -392 17 -21 31 -43 31 -47 0 -5 -72 -109 -161 -230 -88 -121
-159 -224 -157 -229 2 -5 197 -149 433 -320 237 -172 451 -327 476 -346 l46
-33 166 228 166 229 128 -43 c145 -49 284 -81 423 -99 l94 -12 17 -99 c9 -55
29 -180 44 -278 26 -166 29 -177 49 -177 30 0 1147 178 1153 183 2 3 -15 129
-39 281 l-44 275 85 41 c122 58 276 152 383 232 51 39 97 67 105 64 8 -3 110
-76 227 -161 118 -85 217 -155 222 -155 11 1 688 934 691 952 1 7 -95 83 -213
168 -119 85 -219 160 -224 165 -5 6 6 51 25 106 45 129 82 280 103 424 l18
120 274 44 c151 24 277 45 279 47 4 3 -178 1166 -184 1172 -2 2 -496 -73 -538
-82 -14 -3 -30 19 -73 106 -69 137 -143 258 -228 371 l-66 87 166 227 c132
182 162 229 152 239 -26 24 -939 684 -947 684 -4 0 -81 -101 -171 -225 -122
-168 -168 -224 -180 -219 -127 51 -377 114 -537 135 -86 12 -91 14 -96 38 -3
14 -22 140 -43 278 -36 234 -41 253 -59 252 -11 0 -139 -19 -285 -43 -146 -24
-266 -42 -268 -41 -2 2 -23 128 -48 281 -24 153 -47 280 -49 283 -3 2 -129
-15 -280 -39 -152 -23 -277 -41 -278 -39 -1 2 -29 58 -61 124 -53 106 -192
325 -260 410 l-24 30 164 225 c90 124 163 228 162 231 -5 13 -953 697 -960
693 -3 -2 -77 -102 -163 -222 -87 -119 -159 -219 -162 -222 -2 -2 -54 12 -116
33 -141 46 -286 81 -402 96 -49 7 -100 14 -111 17 -20 3 -24 18 -44 151 -48
313 -65 406 -75 408 -5 2 -268 -39 -582 -89z m1269 -2760 c15 -27 3 -214 -18
-291 -69 -259 -266 -472 -517 -560 l-78 -28 -42 40 c-23 22 -68 61 -99 86
l-57 46 47 6 c153 20 278 81 383 185 173 172 230 420 150 653 l-20 56 121 -87
c66 -48 125 -95 130 -106z m2381 -1688 c33 -29 83 -73 109 -98 l49 -45 -89 -1
c-167 -2 -311 -63 -433 -184 -139 -139 -207 -330 -181 -515 6 -44 15 -91 18
-104 9 -29 11 -30 -124 69 l-102 74 0 61 c0 33 9 101 19 151 52 250 227 471
458 576 51 23 166 60 211 67 2 1 31 -23 65 -51z"/>
</g>
</svg>
